<svg width="20" height="20" viewBox="0 0 20 20" fill="none" xmlns="http://www.w3.org/2000/svg">
<rect width="20" height="20" rx="10" transform="matrix(-1 0 0 1 20 0)" fill="white"/>
<g clip-path="url(#clip0_1284_56336)">
<path d="M11.8484 13.936C11.9156 13.936 11.9844 13.9095 12.0359 13.8579C12.1391 13.7548 12.1391 13.586 12.0359 13.4829L8.50625 9.95322L11.9844 6.4751C12.0875 6.37197 12.0875 6.20322 11.9844 6.1001C11.8813 5.99697 11.7125 5.99697 11.6094 6.1001L7.94219 9.76572C7.83906 9.86885 7.83906 10.0376 7.94219 10.1407L11.6594 13.8579C11.7125 13.911 11.7797 13.936 11.8484 13.936Z" fill="#EB5F61"/>
</g>
<defs>
<clipPath id="clip0_1284_56336">
<rect width="8" height="8" fill="white" transform="matrix(0 -1 -1 -4.37114e-08 14 14)"/>
</clipPath>
</defs>
</svg>
