<?xml version="1.0" encoding="UTF-8"?>
<svg id="Layer_1" xmlns="http://www.w3.org/2000/svg" version="1.1" viewBox="0 0 50 50">
  <!-- Generator: Adobe Illustrator 30.1.0, SVG Export Plug-In . SVG Version: 2.1.1 Build 136)  -->
  <defs>
    <style>
      .st0 {
        fill: none;
        stroke: #A2D3F3;
        stroke-linecap: round;
        stroke-linejoin: round;
        stroke-width: 2px;
      }
    </style>
  </defs>
  <rect class="st0" x="17" y="35" width="16" height="14"/>
  <rect class="st0" x="13" y="32" width="24" height="3" rx="1.5" ry="1.5"/>
  <line class="st0" x1="5" y1="49" x2="45" y2="49"/>
  <line class="st0" x1="4" y1="25" x2="9" y2="25"/>
  <line class="st0" x1="40" y1="25" x2="40" y2="25"/>
  <line class="st0" x1="43" y1="25" x2="43" y2="25"/>
  <line class="st0" x1="46" y1="25" x2="46" y2="25"/>
  <path class="st0" d="M17,47.6C7.7,44.3,1,35.4,1,25S11.8,1,25,1s24,10.8,24,24-6.7,19.3-16,22.6"/>
  <path class="st0" d="M6.5,25c0,7.4,4.3,13.7,10.5,16.7"/>
  <path class="st0" d="M33,41.7c4.1-2,7.4-5.4,9.1-9.7"/>
  <path class="st0" d="M14.6,32c-1.3-2-2.1-4.4-2.1-7,0-6.9,5.6-12.5,12.5-12.5s12.5,5.6,12.5,12.5-.8,5-2.1,7"/>
  <line class="st0" x1="29" y1="45" x2="21" y2="45"/>
  <line class="st0" x1="29" y1="42" x2="21" y2="42"/>
  <line class="st0" x1="29" y1="39" x2="21" y2="39"/>
</svg>