<svg width="50" height="50" viewBox="0 0 50 50" fill="none" xmlns="http://www.w3.org/2000/svg">
<path d="M24.9998 43.75L21.979 41.0417C18.4721 37.882 15.5728 35.1563 13.2811 32.8646C10.9894 30.573 9.1665 28.5243 7.81234 26.7188C6.45817 24.8785 5.50331 23.1945 4.94775 21.6667C4.42692 20.1389 4.1665 18.5764 4.1665 16.9792C4.1665 13.7153 5.26025 10.9896 7.44775 8.80212C9.63525 6.61462 12.361 5.52087 15.6248 5.52087C17.4304 5.52087 19.1491 5.90282 20.7811 6.66671C22.413 7.4306 23.8193 8.50699 24.9998 9.89588C26.1804 8.50699 27.5866 7.4306 29.2186 6.66671C30.8505 5.90282 32.5693 5.52087 34.3748 5.52087C37.6387 5.52087 40.3644 6.61462 42.5519 8.80212C44.7394 10.9896 45.8332 13.7153 45.8332 16.9792C45.8332 18.5764 45.5554 20.1389 44.9998 21.6667C44.479 23.1945 43.5415 24.8785 42.1873 26.7188C40.8332 28.5243 39.0103 30.573 36.7186 32.8646C34.4269 35.1563 31.5276 37.882 28.0207 41.0417L24.9998 43.75ZM24.9998 38.125C28.3332 35.1389 31.0762 32.5868 33.229 30.4688C35.3818 28.316 37.0832 26.4584 38.3332 24.8959C39.5832 23.2987 40.4512 21.8924 40.9373 20.6771C41.4235 19.4271 41.6665 18.1945 41.6665 16.9792C41.6665 14.8959 40.9721 13.1598 39.5832 11.7709C38.1943 10.382 36.4582 9.68754 34.3748 9.68754C32.7429 9.68754 31.2325 10.1563 29.8436 11.0938C28.4547 11.9966 27.4998 13.1598 26.979 14.5834H23.0207C22.4998 13.1598 21.545 11.9966 20.1561 11.0938C18.7672 10.1563 17.2568 9.68754 15.6248 9.68754C13.5415 9.68754 11.8054 10.382 10.4165 11.7709C9.02762 13.1598 8.33317 14.8959 8.33317 16.9792C8.33317 18.1945 8.57623 19.4271 9.06234 20.6771C9.54845 21.8924 10.4165 23.2987 11.6665 24.8959C12.9165 26.4584 14.6179 28.316 16.7707 30.4688C18.9235 32.5868 21.6665 35.1389 24.9998 38.125Z" fill="#66B2E4"/>
</svg>
